<svg width="140" height="36" viewBox="0 0 140 36" xmlns="http://www.w3.org/2000/svg">
  <defs>
    <linearGradient id="starGold2" x1="0%" y1="0%" x2="100%" y2="100%">
      <stop offset="0%" stop-color="#f0d9a8"/>
      <stop offset="100%" stop-color="#d4af6a"/>
    </linearGradient>
  </defs>

  <!-- large star -->
  <path d="M 20,6 C 20.6,12 24,15.4 30,16 C 24,16.6 20.6,20 20,26 C 19.4,20 16,16.6 10,16 C 16,15.4 19.4,12 20,6 Z"
        fill="url(#starGold2)" opacity="0.9"/>

  <!-- medium star -->
  <path d="M 68,2 C 68.4,6 71,8.6 75,9 C 71,9.4 68.4,12 68,16 C 67.6,12 65,9.4 61,9 C 65,8.6 67.6,6 68,2 Z"
        fill="url(#starGold2)" opacity="0.7"/>

  <!-- small star -->
  <path d="M 110,16 C 110.3,18.5 112,20.2 114.5,20.5 C 112,20.8 110.3,22.5 110,25 C 109.7,22.5 108,20.8 105.5,20.5 C 108,20.2 109.7,18.5 110,16 Z"
        fill="#8c6d3f" opacity="0.6"/>

  <!-- tiny dot stars -->
  <circle cx="50" cy="24" r="1.3" fill="#d4af6a" opacity="0.6"/>
  <circle cx="92" cy="6" r="1" fill="#d4af6a" opacity="0.5"/>
  <circle cx="130" cy="10" r="1.2" fill="#8c6d3f" opacity="0.5"/>
</svg>
